<svg width="490" height="228" viewBox="0 0 490 228" fill="none" xmlns="http://www.w3.org/2000/svg">
<path d="M115.338 225.059C112.997 225.059 110.66 224.851 108.356 224.438C92.2075 221.551 78.6565 208.929 67.9485 186.838C63.5215 191.57 59.4485 196.016 56.2265 199.928C51.9475 205.12 50.5325 207.755 50.0745 208.828C50.4076 210.544 50.3552 212.313 49.9211 214.006C49.487 215.7 48.6821 217.276 47.5645 218.62C42.8015 224.376 35.0645 223.949 30.9105 223.72L30.5975 223.703C30.3365 223.703 30.0755 223.685 29.8165 223.664C13.9985 222.356 7.49948 213.78 5.03348 208.785C-0.66653 197.23 2.84547 181.695 14.9335 165.041L14.9985 164.953C25.6168 151.053 37.1419 137.869 49.4985 125.488C47.4095 114.548 45.7155 102.707 44.4545 90.2002C44.3708 89.1182 44.2124 88.0432 43.9805 86.9832L43.9415 86.9572C35.1495 81.5932 35.9415 74.1632 36.3995 72.0002C38.0615 64.1212 46.3075 59.1272 61.6075 56.7312C69.7165 55.4612 96.8205 52.3852 105.144 66.0992C105.193 66.1802 105.244 66.2612 105.288 66.3432C107.042 69.4172 108.275 72.7602 108.938 76.2372C136.256 58.8012 160.516 51.9372 181.256 55.8302C189.465 57.2972 193.282 62.7442 194.12 67.3672C194.214 67.8852 194.278 68.4082 194.313 68.9332C202.984 63.3832 212.556 59.3862 222.599 57.1232C234.094 54.5642 246.03 54.7402 257.445 57.6372C267.214 60.0592 274.456 64.7012 278.969 71.4372C280.138 73.1822 281.103 75.0552 281.844 77.0212C290.307 59.9402 300.962 42.2612 313.796 27.9842C313.849 27.9252 313.903 27.8662 313.957 27.8092C314.057 27.6982 314.187 27.5632 314.339 27.4092C343.219 -1.59079 367.172 0.735205 378.882 4.70221C389.148 8.18221 396.705 16.4822 398.607 26.3622L398.623 26.4462C398.928 27.9502 399.038 29.4862 398.947 31.0182C399.822 29.9892 400.706 28.9772 401.6 27.9812C401.66 27.9142 401.721 27.8482 401.783 27.7812C401.883 27.6752 402.003 27.5482 402.145 27.4052C431.024 -1.5948 454.975 0.732199 466.686 4.6992C476.952 8.1792 484.511 16.4792 486.413 26.3592L486.43 26.4492C487.84 33.4072 485.981 44.9052 462.191 76.9132C447.757 96.0592 432.321 114.427 415.947 131.942C406.941 153.71 405.056 164.342 404.837 169.105C408.037 167.513 413.779 163.405 422.147 152.783C427.026 146.529 431.47 139.947 435.447 133.083C436.445 131.353 437.868 129.906 439.581 128.88C441.294 127.854 443.241 127.282 445.237 127.219C447.237 127.124 449.228 127.537 451.025 128.42C452.822 129.302 454.366 130.625 455.513 132.266L462.395 142.366C463.45 143.898 464.084 145.679 464.237 147.532C464.39 149.386 464.056 151.247 463.267 152.931C458.322 163.066 452.56 172.782 446.038 181.982C431.092 203.062 415.421 216.275 399.462 221.254C380.294 227.299 367.45 222.5 360.057 217.407C353.596 212.957 348.544 206.383 345.145 198.259C334.257 209.995 323.044 217.7 311.658 221.259C292.396 227.335 279.513 222.466 272.104 217.31C264.152 211.776 258.36 203.039 255.172 192.161C237.882 207.872 222.717 217.816 209.935 221.801C200.107 224.949 189.594 225.282 179.587 222.764C169.579 220.245 160.476 214.975 153.309 207.551C140.503 219.202 127.791 225.068 115.344 225.069" fill="url(#paint0_linear_2131_222)"/>
<path d="M115.337 227.425C112.856 227.424 110.38 227.204 107.937 226.767C91.8145 223.885 78.1735 211.839 67.3565 190.946C64.1345 194.422 60.7565 198.146 58.0505 201.437C55.9575 203.828 54.1071 206.421 52.5265 209.178C52.7904 211.122 52.6474 213.099 52.1065 214.985C51.5656 216.87 50.6387 218.623 49.3845 220.131C46.0045 224.215 41.0215 226.2 34.1495 226.2C32.8915 226.2 31.7435 226.138 30.7795 226.085C30.2405 226.065 29.9295 226.05 29.6195 226.024C12.6395 224.62 5.59649 215.277 2.90951 209.834C-3.20349 197.452 0.386511 181.051 13.0165 163.652C23.4467 149.931 34.7816 136.922 46.9455 124.711C44.9455 114.046 43.3215 102.524 42.1025 90.4392C42.0115 89.5462 41.9295 88.8992 41.8575 88.4332C32.6385 82.3682 33.5645 73.9852 34.0865 71.5132C35.9755 62.5602 44.8585 56.9612 61.2435 54.3962C66.3897 53.5952 71.5885 53.1812 76.7965 53.1562C92.0125 53.1562 102.513 57.2082 107.165 64.8732C108.558 67.2752 109.661 69.8332 110.451 72.4952C132.072 59.1652 151.972 52.4092 169.639 52.4092C173.681 52.4042 177.716 52.7722 181.69 53.5092C190.046 55.0002 194.446 60.2062 195.996 65.1412C204.102 60.3532 212.909 56.8672 222.096 54.8112C227.654 53.5902 233.328 52.9692 239.019 52.9612C245.43 52.9652 251.815 53.7662 258.029 55.3432C268.375 57.9082 276.087 62.8792 280.938 70.1152C281.275 70.6182 281.596 71.1322 281.902 71.6562C291.278 53.4372 301.402 38.2272 312.039 26.3982L312.671 25.7322C329.67 8.66017 347.086 0.000270958 364.431 0.000270958C369.601 -0.017229 374.739 0.813071 379.641 2.45827C390.527 6.14917 398.596 14.9002 400.823 25.3802C417.713 8.54218 435.011 0.000270958 452.235 0.000270958C457.405 -0.017229 462.543 0.813071 467.445 2.45827C478.516 6.21217 486.674 15.2002 488.736 25.9132C490.336 33.8032 488.443 45.5592 464.09 78.3262C449.686 97.4252 434.292 115.756 417.969 133.244C411.478 148.989 408.833 158.667 407.8 164.371C410.795 162.042 414.968 158.071 420.288 151.319C425.093 145.161 429.469 138.679 433.382 131.919C434.582 129.841 436.29 128.103 438.346 126.867C440.402 125.63 442.739 124.937 445.137 124.852L445.718 124.84C448.024 124.821 450.3 125.366 452.347 126.427C454.394 127.489 456.151 129.035 457.464 130.931L464.345 141.031C465.636 142.9 466.415 145.075 466.602 147.339C466.788 149.603 466.376 151.876 465.408 153.931C460.398 164.192 454.564 174.031 447.965 183.35C432.712 204.863 416.63 218.375 400.165 223.512C394.429 225.386 388.44 226.374 382.405 226.441C373.971 226.543 365.706 224.071 358.712 219.355C352.598 215.009 347.689 209.181 344.443 202.418C334.037 213.018 323.256 220.112 312.36 223.512C306.623 225.387 300.633 226.375 294.598 226.442C286.099 226.544 277.773 224.03 270.75 219.242C263.31 214.065 257.582 206.193 254.044 196.342C237.627 210.87 223.034 220.188 210.636 224.053C204.928 225.84 198.982 226.751 193.001 226.753C178.175 226.777 163.916 221.056 153.218 210.792C140.543 221.83 127.809 227.425 115.337 227.425ZM68.5725 182.709L70.0725 185.809C80.4265 207.157 93.4455 219.37 108.772 222.109C110.939 222.497 113.136 222.692 115.338 222.693C127.146 222.693 139.384 217.006 151.711 205.793L153.406 204.251L155.006 205.895C159.914 210.974 165.787 215.022 172.281 217.8C178.828 220.598 185.876 222.033 192.996 222.016C198.499 222.014 203.97 221.176 209.221 219.532C221.637 215.661 236.558 205.859 253.572 190.399L256.372 187.856L257.436 191.485C260.501 201.946 266.036 210.201 273.449 215.357C279.666 219.619 287.057 221.838 294.594 221.704C300.149 221.636 305.661 220.721 310.94 218.991C321.897 215.573 332.818 208.054 343.404 196.643L345.904 193.949L347.322 197.339C350.606 205.188 355.339 211.282 361.393 215.452C367.584 219.651 374.921 221.835 382.401 221.703C387.955 221.635 393.466 220.721 398.744 218.991C414.204 214.168 429.463 201.254 444.102 180.607C450.539 171.52 456.229 161.927 461.117 151.921C461.733 150.609 461.995 149.159 461.874 147.714C461.754 146.27 461.256 144.883 460.431 143.691L453.55 133.591C452.671 132.333 451.498 131.309 450.132 130.607C448.767 129.906 447.251 129.549 445.716 129.568C444.061 129.569 442.434 129.999 440.995 130.817C439.556 131.634 438.353 132.812 437.505 134.233C433.47 141.205 428.96 147.891 424.005 154.243C415.475 165.068 409.446 169.449 405.891 171.219L402.291 173.012L402.477 168.992C402.729 163.512 404.891 152.477 413.762 131.033L413.926 130.633L414.219 130.319C430.53 112.868 445.911 94.5702 460.296 75.5002C483.737 43.9582 485.336 32.9702 484.11 26.9202C482.347 17.7612 475.388 10.1482 465.926 6.94117C461.514 5.46217 456.889 4.71617 452.235 4.73417C436.196 4.73417 419.908 12.9242 403.822 29.0762L401.783 27.7822L403.355 29.5682C402.48 30.5422 401.611 31.5362 400.749 32.5502L396.197 37.9002L396.581 30.8892C396.66 29.5592 396.566 28.2232 396.302 26.9172C394.54 17.7632 387.581 10.1502 378.12 6.94317C373.708 5.46417 369.084 4.71717 364.431 4.73417C348.391 4.73417 332.102 12.9242 316.016 29.0772L313.957 27.8002L315.557 29.5602C304.385 41.9882 293.757 58.3072 283.967 78.0602L281.553 82.9332L279.633 77.8452C278.956 76.0502 278.075 74.3392 277.007 72.7452C272.832 66.5172 266.06 62.2052 256.879 59.9292C251.042 58.4462 245.043 57.6942 239.02 57.6892C233.669 57.6972 228.334 58.2812 223.108 59.4302C213.333 61.6362 204.017 65.5282 195.577 70.9302L192.212 73.0502L191.954 69.0822C191.925 68.6462 191.872 68.2122 191.794 67.7822C191.1 63.9502 187.859 59.4082 180.845 58.1562C177.151 57.4722 173.402 57.1302 169.645 57.1372C152.137 57.1372 132.145 64.2372 110.215 78.2292L107.296 80.1002L106.62 76.7062C106.01 73.4792 104.867 70.3762 103.237 67.5242C98.3875 59.5272 86.1965 57.8892 76.7965 57.8892C71.8327 57.9122 66.8775 58.3072 61.9725 59.0702C47.7605 61.3002 40.1525 65.6852 38.7165 72.4902C38.3435 74.2582 37.7055 80.3802 45.1755 84.9382L45.9925 85.4382L46.2725 86.3912C46.5368 87.5682 46.7166 88.7622 46.8105 89.9642C48.0625 102.375 49.7495 114.179 51.8245 125.047L52.0575 126.27L51.1825 127.155C38.9089 139.461 27.4556 152.558 16.8965 166.363C5.29649 182.34 1.85651 197.01 7.15349 207.739C9.39849 212.286 15.3535 220.095 30.0095 221.307L30.6375 221.339C31.9315 221.408 32.9905 221.468 34.1515 221.468C39.5995 221.468 43.2815 220.084 45.7405 217.114C46.6351 216.039 47.2794 214.778 47.6271 213.424C47.9747 212.069 48.0169 210.654 47.7505 209.281L47.6125 208.569L47.8975 207.902C48.5385 206.402 50.1865 203.541 54.3975 198.428C57.8515 194.235 62.3115 189.401 66.2175 185.228L68.5725 182.709Z" fill="white"/>
<path d="M246.357 104.631C237.784 123.352 213.53 129.773 201.821 131.652C228.08 74.3942 258.915 77.3332 246.357 104.631ZM348.771 66.6312C353.616 58.3432 358.471 51.1152 362.471 45.2242C359.9 53.2592 347.329 73.0522 335.35 91.5082C342.484 77.6082 348.191 67.4392 348.769 66.6322M436.184 66.6322C441.03 58.3442 445.884 51.1162 449.884 45.2252C447.313 53.2602 434.743 73.0532 422.763 91.5092C429.897 77.6092 435.603 67.4402 436.182 66.6332M410.892 36.6992C410.853 36.7352 410.815 36.7832 410.776 36.8202C385.465 64.5202 367.284 108.997 358.483 137.82L358.477 137.811C358.477 137.811 335.353 178.469 315.65 179.811C299.095 181.149 306.807 153.862 318.799 125.769C348.476 94.7282 390.44 43.6232 387.592 30.2542C387.584 30.2092 387.575 30.1632 387.566 30.1182C386.384 24.0772 381.629 19.2502 375.454 17.1912C372.058 16.0712 368.504 15.5082 364.928 15.5232C354.671 15.5232 340.445 19.9232 323.476 36.6982C323.438 36.7342 323.4 36.7822 323.361 36.8192C297.898 64.6832 279.646 109.533 270.907 138.338C270.567 139.46 270.248 140.547 269.938 141.617L269.275 142.181C254.442 154.769 225.189 178.333 211.243 180.875C194.11 184.091 190.125 172.587 192.4 159.48C193.261 155.456 194.405 151.18 195.832 146.361C247.489 149.577 301.732 80.5492 255.483 69.3092C215.806 59.4092 177.85 89.6442 161 126.833C156.973 135.785 153.817 145.104 151.578 154.661C150.595 159.075 150.192 163.599 150.378 168.117C141.548 176.032 132.319 181.778 124.17 181.417C114.47 180.875 106.47 168.84 102.47 149.036C101.625 145.609 101.053 142.121 100.761 138.603C129.591 112.124 160.708 87.5032 171.839 81.6222C185.258 74.3942 186.684 68.7802 180.399 67.7082C155.849 63.1542 126.454 77.8762 99.9118 97.9332V87.7772C99.9118 79.4772 98.4718 75.4652 96.7618 72.5252C90.4898 62.3582 37.6758 69.8502 52.2388 78.4042C56.5188 81.0782 57.3678 84.0302 57.9458 89.6442C59.2409 102.765 61.2401 115.806 63.9348 128.712C46.8148 145.289 33.3958 161.082 26.5448 170.177C10.5558 191.849 13.1258 208.969 32.8168 210.57C33.9608 210.57 41.3908 211.377 40.5288 208.703C37.6748 201.21 54.8088 184.886 72.4948 166.166L73.6388 164.829C91.0678 213.607 119.55 229.429 155.963 188.416C160.8 197.335 168.592 204.291 177.999 208.09C187.407 211.889 197.844 212.293 207.518 209.234C225.859 203.608 248.442 183.381 264.509 166.961L265.042 166.415C265 167.315 264.969 168.21 264.959 169.106C264.676 193.995 277.067 218.546 308.789 208.706C326.717 203.206 342.174 184.977 352.372 169.868C352.348 194.493 364.805 218.449 396.204 208.706C428.465 198.806 452.732 147.701 452.732 147.701L445.882 137.811C445.882 137.811 422.758 178.469 403.055 179.811C386.5 181.149 394.212 153.862 406.204 125.769C435.892 94.7282 477.855 43.6232 475.002 30.2542C474.993 30.2092 474.986 30.1632 474.977 30.1182C473.795 24.0772 469.04 19.2502 462.865 17.1912C459.47 16.0722 455.917 15.5092 452.342 15.5232C442.086 15.5232 427.859 19.9232 410.89 36.6982" fill="white"/>
<defs>
<linearGradient id="paint0_linear_2131_222" x1="244.575" y1="2.3664" x2="244.575" y2="225.069" gradientUnits="userSpaceOnUse">
<stop stop-color="#2F1071"/>
<stop offset="1" stop-color="#22CC8C"/>
</linearGradient>
</defs>
</svg>
